<svg width="1600" height="900" viewBox="0 0 1600 900" fill="none" xmlns="http://www.w3.org/2000/svg">
  <rect width="1600" height="900" fill="#0F172A"/>
  <rect width="1600" height="900" fill="url(#paint0_linear_1_2)"/>
  <circle cx="1290" cy="170" r="210" fill="#F59E0B" fill-opacity="0.18"/>
  <circle cx="260" cy="760" r="260" fill="#38BDF8" fill-opacity="0.16"/>
  <rect x="205" y="196" width="1190" height="508" rx="40" fill="white" fill-opacity="0.08" stroke="white" stroke-opacity="0.18" stroke-width="2"/>
  <rect x="285" y="286" width="380" height="240" rx="24" fill="white" fill-opacity="0.1"/>
  <path d="M345 476L438 387C451 374 473 375 485 390L538 455L604 406C620 394 643 399 652 417L697 506H345V476Z" fill="white" fill-opacity="0.28"/>
  <circle cx="596" cy="350" r="34" fill="#FBBF24" fill-opacity="0.9"/>
  <rect x="736" y="304" width="385" height="28" rx="14" fill="white" fill-opacity="0.3"/>
  <rect x="736" y="356" width="515" height="20" rx="10" fill="white" fill-opacity="0.18"/>
  <rect x="736" y="398" width="458" height="20" rx="10" fill="white" fill-opacity="0.18"/>
  <rect x="736" y="440" width="410" height="20" rx="10" fill="white" fill-opacity="0.18"/>
  <rect x="736" y="516" width="204" height="52" rx="26" fill="#F59E0B"/>
  <text x="736" y="628" fill="white" fill-opacity="0.9" font-family="Arial, sans-serif" font-size="44" font-weight="700">Rest House Photos</text>
  <text x="736" y="676" fill="white" fill-opacity="0.7" font-family="Arial, sans-serif" font-size="26">Add images to public/resthouses/&lt;slug&gt;/ and the portal will use them automatically.</text>
  <defs>
    <linearGradient id="paint0_linear_1_2" x1="139" y1="86" x2="1452" y2="812" gradientUnits="userSpaceOnUse">
      <stop stop-color="#1E293B"/>
      <stop offset="0.55" stop-color="#1D4ED8"/>
      <stop offset="1" stop-color="#0F172A"/>
    </linearGradient>
  </defs>
</svg>
